<svg height="200px" width="200px" version="1.1" id="_x36_" xmlns="http://www.w3.org/2000/svg" xmlns:xlink="http://www.w3.org/1999/xlink" viewBox="0 0 512 512" xml:space="preserve" fill="#000000">
  <defs>
    <filter id="blush-blur">
      <feGaussianBlur in="SourceGraphic" stdDeviation="8" />
    </filter>
  </defs>
  <g id="SVGRepo_bgCarrier" stroke-width="0"></g>
  <g id="SVGRepo_tracerCarrier" stroke-linecap="round" stroke-linejoin="round"></g>
  <g id="SVGRepo_iconCarrier">
    <g>
      <!-- Beard/Face Base (White) -->
      <path style="fill:#FFFFFF;" d="M1.431,245.956c0,145.297,106.494,263.075,237.862,263.075c131.371,0,237.865-117.779,237.865-263.075c0-10.95-0.674-21.719-1.851-32.326H3.279C2.109,224.237,1.431,235.006,1.431,245.956z"></path>
      
      <!-- Face Skin Tone (Uniform) -->
      <ellipse style="fill:#F8DCAC;" cx="237.865" cy="237.865" rx="235" ry="180"></ellipse>
      
      <!-- Hat and Trim -->
      <g>
        <!-- Main Hat (Theme Red) -->
        <path style="fill:oklch(0.55 0.22 25);" d="M237.865,0C141.818,0,59.126,56.96,21.57,138.919h432.597C416.615,56.96,333.918,0,237.865,0z"></path>
        <!-- Hat Trim (White) -->
        <path style="fill:#FFFFFF;stroke:#AAAAAA;stroke-width:2;" d="M21.57,138.919c-9.939,21.686-16.703,45.117-19.715,69.719h472.024c-3.015-24.602-9.773-48.033-19.712-69.719H21.57z"></path>
      </g>
      
      <!-- Beard Details -->
      <path style="fill:#FFFFFF;" d="M347.95,366.185c-22.02-42.168-73.392-55.582-110.085-55.582c-36.686,0-88.066,13.414-110.088,55.582c0,0-24.192,33.006-22.377,74.837c37.86,26.569,83.427,42.085,132.465,42.085c49.045,0,94.606-15.516,132.462-42.085C372.145,399.191,347.95,366.185,347.95,366.185z"></path>
      
      <!-- Side Beard Puffs -->
      <g>
        <path style="fill:#FFFFFF;" d="M0,238.302c0,83.718,41.999,157.461,105.767,200.762c6.169-7.062,9.948-16.336,9.948-26.523c0-22.029-17.539-39.893-39.219-40.022c1.607-4.358,2.526-9.053,2.526-13.979c0-16.842-10.26-31.231-24.774-37.142c2.922-5.591,4.589-11.953,4.589-18.72c0-15.179-8.318-28.378-20.581-35.165c7.042-7.234,11.41-17.173,11.41-28.15c0-12.342-5.511-23.378-14.174-30.725H1.855C0.678,218.366,0,228.251,0,238.302z"></path>
        <path style="fill:#FFFFFF;" d="M475.731,238.302c0,83.718-41.996,157.461-105.761,200.762c-6.176-7.062-9.959-16.336-9.959-26.523c0-22.029,17.543-39.893,39.226-40.022c-1.607-4.358-2.526-9.053-2.526-13.979c0-16.842,10.262-31.231,24.776-37.142c-2.922-5.591-4.596-11.953-4.596-18.72c0-15.179,8.318-28.378,20.585-35.165c-7.049-7.234-11.414-17.173-11.414-28.15c0-12.342,5.515-23.378,14.184-30.725h33.631C475.056,218.366,475.731,228.251,475.731,238.302z"></path>
      </g>
      
      <!-- Rosy Nose -->
      <circle style="fill:#F5B5B5;" cx="237.866" cy="314.138" r="45"></circle>
      
      <!-- Cute Round Eyes -->
      <g>
        <circle style="fill:#4A3F35;" cx="161.031" cy="262.768" r="20"></circle>
        <circle style="fill:#FFFFFF;" cx="165" cy="258" r="6"></circle>
        <circle style="fill:#4A3F35;" cx="314.702" cy="262.768" r="20"></circle>
        <circle style="fill:#FFFFFF;" cx="318.5" cy="258" r="6"></circle>
      </g>
      
      <!-- Pom-pom on hat -->
      <circle style="fill:#FFFFFF;" cx="456.039" cy="122.811" r="55.959"></circle>
      <circle style="fill:none;stroke:#AAAAAA;stroke-width:2;" cx="456.039" cy="122.811" r="52.959"></circle>
      
      <!-- Rosy Cheeks -->
      <circle style="fill:#F5A9B8;" opacity="0.35" filter="url(#blush-blur)" cx="125" cy="320" r="22"></circle>
      <circle style="fill:#F5A9B8;" opacity="0.35" filter="url(#blush-blur)" cx="350" cy="320" r="22"></circle>
    </g>
  </g>
</svg>